<?xml version="1.0" encoding="utf-8"?>
<!-- Generator: Adobe Illustrator 19.0.0, SVG Export Plug-In . SVG Version: 6.00 Build 0)  -->
<svg version="1.1" id="Layer_1" xmlns="http://www.w3.org/2000/svg" xmlns:xlink="http://www.w3.org/1999/xlink" x="0px" y="0px"
	 viewBox="-297 389 16 16" style="enable-background:new -297 389 16 16;" xml:space="preserve">
<style type="text/css">
	.st0{fill:#E32B59;}
</style>
<g id="XMLID_2_">
	<path id="XMLID_225_" class="st0" d="M-288.9,404.8c-2.3-1.3-4.5-2.6-6.8-3.9c0-2.6,0-5.2,0-7.9c2.3-1.3,4.5-2.6,6.8-3.9
		c2.3,1.3,4.5,2.6,6.8,3.9c0,2.6,0,5.2,0,7.9C-284.4,402.2-286.7,403.5-288.9,404.8z M-289.3,389.6c-2.1,1.2-4.2,2.4-6.2,3.6
		c0,2.5,0,4.9,0,7.4C-293.4,396.9-291.3,393.3-289.3,389.6C-289.2,389.6-289.2,389.6-289.3,389.6
		C-289.2,389.6-289.3,389.6-289.3,389.6z M-288.6,389.6c0,0-0.1,0-0.2-0.1C-288.7,389.6-288.7,389.7-288.6,389.6
		c2,3.6,4.1,7.2,6.2,10.9c0-2.5,0-4.9,0-7.4C-284.4,392-286.5,390.8-288.6,389.6z M-295.3,400.9c2.2,1.3,4.3,2.5,6.4,3.7
		c2.1-1.2,4.2-2.4,6.4-3.7C-286.9,400.9-291,400.9-295.3,400.9z M-285.6,395.2c-1.1,1.9-2.2,3.8-3.3,5.7c2.2,0,4.3,0,6.5,0
		C-283.4,398.9-284.5,397.1-285.6,395.2z M-295.5,400.8c2.2,0,4.4,0,6.5,0c-1.1-1.9-2.2-3.8-3.3-5.7
		C-293.4,397.1-294.4,398.9-295.5,400.8z M-288.9,400.8c1.1-1.9,2.2-3.8,3.3-5.7c-2.2,0-4.3,0-6.5,0
		C-291.1,397-290,398.9-288.9,400.8z M-292.2,395c2.2,0,4.3,0,6.5,0c-1.1-1.9-2.2-3.7-3.3-5.7C-290,391.3-291.1,393.1-292.2,395z"/>
</g>
</svg>
